<svg width="26" height="28" viewBox="0 0 26 28" fill="none" xmlns="http://www.w3.org/2000/svg">
<path d="M4.9 1L1 6.2V24.4C1 25.0896 1.27393 25.7509 1.76152 26.2385C2.24912 26.7261 2.91044 27 3.6 27H21.8C22.4896 27 23.1509 26.7261 23.6385 26.2385C24.1261 25.7509 24.4 25.0896 24.4 24.4V6.2L20.5 1H4.9Z" stroke="#C47F65" stroke-width="2" stroke-linecap="round" stroke-linejoin="round"/>
<path d="M1 6.20001H24.4" stroke="#C47F65" stroke-width="2" stroke-linecap="round" stroke-linejoin="round"/>
<path d="M17.9 11.4C17.9 12.7791 17.3521 14.1018 16.377 15.0769C15.4018 16.0521 14.0791 16.6 12.7 16.6C11.3209 16.6 9.99823 16.0521 9.02304 15.0769C8.04786 14.1018 7.5 12.7791 7.5 11.4" stroke="#C47F65" stroke-width="2" stroke-linecap="round" stroke-linejoin="round"/>
</svg>
