<svg width="135" height="20" viewBox="0 0 135 20" fill="none" xmlns="http://www.w3.org/2000/svg">
<path d="M15.75 1.45V19H11.475V11.775H4.825V19H0.55V1.45H4.825V8.325H11.475V1.45H15.75ZM25.1861 19.2C23.8195 19.2 22.5861 18.9083 21.4861 18.325C20.4028 17.7417 19.5445 16.9083 18.9111 15.825C18.2945 14.7417 17.9861 13.475 17.9861 12.025C17.9861 10.5917 18.3028 9.33333 18.9361 8.25C19.5695 7.15 20.4361 6.30833 21.5361 5.725C22.6361 5.14167 23.8695 4.85 25.2361 4.85C26.6028 4.85 27.8361 5.14167 28.9361 5.725C30.0361 6.30833 30.9028 7.15 31.5361 8.25C32.1695 9.33333 32.4861 10.5917 32.4861 12.025C32.4861 13.4583 32.1611 14.725 31.5111 15.825C30.8778 16.9083 30.0028 17.7417 28.8861 18.325C27.7861 18.9083 26.5528 19.2 25.1861 19.2ZM25.1861 15.5C26.0028 15.5 26.6945 15.2 27.2611 14.6C27.8445 14 28.1361 13.1417 28.1361 12.025C28.1361 10.9083 27.8528 10.05 27.2861 9.45C26.7361 8.85 26.0528 8.55 25.2361 8.55C24.4028 8.55 23.7111 8.85 23.1611 9.45C22.6111 10.0333 22.3361 10.8917 22.3361 12.025C22.3361 13.1417 22.6028 14 23.1361 14.6C23.6861 15.2 24.3695 15.5 25.1861 15.5ZM39.0291 0.5V19H34.7541V0.5H39.0291ZM41.2771 12C41.2771 10.5667 41.5438 9.30833 42.0771 8.225C42.6271 7.14167 43.3688 6.30833 44.3021 5.725C45.2355 5.14167 46.2771 4.85 47.4271 4.85C48.3438 4.85 49.1771 5.04167 49.9271 5.425C50.6938 5.80833 51.2938 6.325 51.7271 6.975V0.5H56.0021V19H51.7271V17C51.3271 17.6667 50.7521 18.2 50.0021 18.6C49.2688 19 48.4105 19.2 47.4271 19.2C46.2771 19.2 45.2355 18.9083 44.3021 18.325C43.3688 17.725 42.6271 16.8833 42.0771 15.8C41.5438 14.7 41.2771 13.4333 41.2771 12ZM51.7271 12.025C51.7271 10.9583 51.4271 10.1167 50.8271 9.5C50.2438 8.88333 49.5271 8.575 48.6771 8.575C47.8271 8.575 47.1021 8.88333 46.5021 9.5C45.9188 10.1 45.6271 10.9333 45.6271 12C45.6271 13.0667 45.9188 13.9167 46.5021 14.55C47.1021 15.1667 47.8271 15.475 48.6771 15.475C49.5271 15.475 50.2438 15.1667 50.8271 14.55C51.4271 13.9333 51.7271 13.0917 51.7271 12.025Z" fill="#C47F65"/>
<path d="M69.7199 10C70.7366 10.2167 71.5533 10.725 72.1699 11.525C72.7866 12.3083 73.0949 13.2083 73.0949 14.225C73.0949 15.6917 72.5783 16.8583 71.5449 17.725C70.5283 18.575 69.1033 19 67.2699 19H59.0949V1.45H66.9949C68.7783 1.45 70.1699 1.85833 71.1699 2.675C72.1866 3.49167 72.6949 4.6 72.6949 6C72.6949 7.03333 72.4199 7.89167 71.8699 8.575C71.3366 9.25833 70.6199 9.73333 69.7199 10ZM63.3699 8.55H66.1699C66.8699 8.55 67.4033 8.4 67.7699 8.1C68.1533 7.78333 68.3449 7.325 68.3449 6.725C68.3449 6.125 68.1533 5.66667 67.7699 5.35C67.4033 5.03333 66.8699 4.875 66.1699 4.875H63.3699V8.55ZM66.5199 15.55C67.2366 15.55 67.7866 15.3917 68.1699 15.075C68.5699 14.7417 68.7699 14.2667 68.7699 13.65C68.7699 13.0333 68.5616 12.55 68.1449 12.2C67.7449 11.85 67.1866 11.675 66.4699 11.675H63.3699V15.55H66.5199ZM81.9244 19.2C80.5577 19.2 79.3244 18.9083 78.2244 18.325C77.1411 17.7417 76.2827 16.9083 75.6494 15.825C75.0327 14.7417 74.7244 13.475 74.7244 12.025C74.7244 10.5917 75.0411 9.33333 75.6744 8.25C76.3077 7.15 77.1744 6.30833 78.2744 5.725C79.3744 5.14167 80.6077 4.85 81.9744 4.85C83.3411 4.85 84.5744 5.14167 85.6744 5.725C86.7744 6.30833 87.6411 7.15 88.2744 8.25C88.9077 9.33333 89.2244 10.5917 89.2244 12.025C89.2244 13.4583 88.8994 14.725 88.2494 15.825C87.6161 16.9083 86.7411 17.7417 85.6244 18.325C84.5244 18.9083 83.2911 19.2 81.9244 19.2ZM81.9244 15.5C82.7411 15.5 83.4327 15.2 83.9994 14.6C84.5827 14 84.8744 13.1417 84.8744 12.025C84.8744 10.9083 84.5911 10.05 84.0244 9.45C83.4744 8.85 82.7911 8.55 81.9744 8.55C81.1411 8.55 80.4494 8.85 79.8994 9.45C79.3494 10.0333 79.0744 10.8917 79.0744 12.025C79.0744 13.1417 79.3411 14 79.8744 14.6C80.4244 15.2 81.1077 15.5 81.9244 15.5ZM97.8424 19.2C96.4757 19.2 95.2424 18.9083 94.1424 18.325C93.059 17.7417 92.2007 16.9083 91.5674 15.825C90.9507 14.7417 90.6424 13.475 90.6424 12.025C90.6424 10.5917 90.959 9.33333 91.5924 8.25C92.2257 7.15 93.0924 6.30833 94.1924 5.725C95.2924 5.14167 96.5257 4.85 97.8924 4.85C99.259 4.85 100.492 5.14167 101.592 5.725C102.692 6.30833 103.559 7.15 104.192 8.25C104.826 9.33333 105.142 10.5917 105.142 12.025C105.142 13.4583 104.817 14.725 104.167 15.825C103.534 16.9083 102.659 17.7417 101.542 18.325C100.442 18.9083 99.2091 19.2 97.8424 19.2ZM97.8424 15.5C98.659 15.5 99.3507 15.2 99.9174 14.6C100.501 14 100.792 13.1417 100.792 12.025C100.792 10.9083 100.509 10.05 99.9424 9.45C99.3924 8.85 98.709 8.55 97.8924 8.55C97.059 8.55 96.3674 8.85 95.8174 9.45C95.2674 10.0333 94.9924 10.8917 94.9924 12.025C94.9924 13.1417 95.259 14 95.7924 14.6C96.3424 15.2 97.0257 15.5 97.8424 15.5ZM115.935 19L111.685 13.15V19H107.41V0.5H111.685V10.725L115.91 5.05H121.185L115.385 12.05L121.235 19H115.935ZM128.539 19.2C127.323 19.2 126.239 18.9917 125.289 18.575C124.339 18.1583 123.589 17.5917 123.039 16.875C122.489 16.1417 122.181 15.325 122.114 14.425H126.339C126.389 14.9083 126.614 15.3 127.014 15.6C127.414 15.9 127.906 16.05 128.489 16.05C129.023 16.05 129.431 15.95 129.714 15.75C130.014 15.5333 130.164 15.2583 130.164 14.925C130.164 14.525 129.956 14.2333 129.539 14.05C129.123 13.85 128.448 13.6333 127.514 13.4C126.514 13.1667 125.681 12.925 125.014 12.675C124.348 12.4083 123.773 12 123.289 11.45C122.806 10.8833 122.564 10.125 122.564 9.175C122.564 8.375 122.781 7.65 123.214 7C123.664 6.33333 124.314 5.80833 125.164 5.425C126.031 5.04167 127.056 4.85 128.239 4.85C129.989 4.85 131.364 5.28333 132.364 6.15C133.381 7.01667 133.964 8.16667 134.114 9.6H130.164C130.098 9.11667 129.881 8.73333 129.514 8.45C129.164 8.16667 128.698 8.025 128.114 8.025C127.614 8.025 127.231 8.125 126.964 8.325C126.698 8.50833 126.564 8.76667 126.564 9.1C126.564 9.5 126.773 9.8 127.189 10C127.623 10.2 128.289 10.4 129.189 10.6C130.223 10.8667 131.064 11.1333 131.714 11.4C132.364 11.65 132.931 12.0667 133.414 12.65C133.914 13.2167 134.173 13.9833 134.189 14.95C134.189 15.7667 133.956 16.5 133.489 17.15C133.039 17.7833 132.381 18.2833 131.514 18.65C130.664 19.0167 129.673 19.2 128.539 19.2Z" fill="#FFFEE9"/>
</svg>
