<svg width="100" height="100" viewBox="0 0 100 100" fill="none" xmlns="http://www.w3.org/2000/svg">
<rect width="100" height="100" rx="25" fill="#C47F65"/>
<path d="M50 41.9718C53.859 41.9718 57 38.8294 57 34.9666C57 31.1037 53.859 27.9614 50 27.9614C46.141 27.9614 43 31.1037 43 34.9666C43 38.8294 46.141 41.9718 50 41.9718ZM50 29.9628C52.757 29.9628 55 32.2075 55 34.9666C55 37.7256 52.757 39.9703 50 39.9703C47.243 39.9703 45 37.7256 45 34.9666C45 32.2075 47.243 29.9628 50 29.9628Z" fill="#FBF9D9"/>
<path d="M66 51.9793C69.859 51.9793 73 48.8369 73 44.9741C73 41.1112 69.859 37.9689 66 37.9689C62.141 37.9689 59 41.1112 59 44.9741C59 48.8369 62.141 51.9793 66 51.9793ZM66 39.9704C68.757 39.9704 71 42.215 71 44.9741C71 47.7331 68.757 49.9778 66 49.9778C63.243 49.9778 61 47.7331 61 44.9741C61 42.215 63.243 39.9704 66 39.9704Z" fill="#FBF9D9"/>
<path d="M63 61.9866C63 65.298 65.691 67.991 69 67.991C72.309 67.991 75 65.298 75 61.9866C75 58.6751 72.309 55.9821 69 55.9821C65.691 55.9821 63 58.6751 63 61.9866ZM73 61.9866C73 64.1942 71.206 65.9895 69 65.9895C66.794 65.9895 65 64.1942 65 61.9866C65 59.7789 66.794 57.9836 69 57.9836C71.206 57.9836 73 59.7789 73 61.9866Z" fill="#FBF9D9"/>
<path d="M21 80H27C27.553 80 28 79.5517 28 78.9993V75.4036C29.129 76.0901 30.372 76.5594 31.726 76.7966L31.767 77.1319C31.964 78.7671 33.354 80 35 80C36.646 80 38.036 78.7671 38.233 77.1329L38.464 75.2275C41.027 72.8747 42.271 68.5345 43.461 64.3114C44.958 58.9984 46.373 53.9807 50 53.9807C53.625 53.9807 55.038 58.9964 56.534 64.3054C58.211 70.2548 60.111 76.9978 66 76.9978C75.421 76.9978 80 68.1592 80 49.9777C80 34.8265 66.822 22.9577 50 22.9577C45.378 22.9577 40.988 23.8413 36.929 25.5636C36.329 24.8831 35.856 24.4008 35.707 24.2517C35.316 23.8604 34.684 23.8604 34.293 24.2517C33.924 24.6209 31.608 26.9857 30.165 29.5045C29.406 30.09 28.683 30.7134 28 31.3679V26.9607C28 26.8055 27.964 26.6514 27.895 26.5133L24.895 20.5089C24.555 19.8304 23.446 19.8304 23.106 20.5089L20.106 26.5133C20.036 26.6514 20 26.8055 20 26.9607V78.9993C20 79.5517 20.447 80 21 80ZM22 77.9985V74.9963H26V77.9985H22ZM26 27.9614V72.9948H22V27.9614H26ZM35 77.9985C34.365 77.9985 33.828 77.5232 33.753 76.8917L30.909 53.4203C30.357 48.8619 30.966 44.2265 32.668 39.9703H37.332C39.034 44.2265 39.643 48.8629 39.091 53.4203L36.247 76.8927C36.172 77.5232 35.635 77.9985 35 77.9985ZM50 24.9592C65.701 24.9592 78 35.9483 78 49.9777C78 74.9963 68.968 74.9963 66 74.9963C61.625 74.9963 60.088 69.5392 58.459 63.762C56.827 57.9697 55.139 51.9792 50 51.9792C44.858 51.9792 43.17 57.9717 41.536 63.768C40.788 66.4219 40.019 69.1229 38.95 71.2145L41.077 53.6615C41.675 48.7128 40.989 43.6821 39.112 39.0696C39.698 38.0679 41 35.554 41 32.9651C41 31.1738 39.617 28.9411 38.258 27.1758C41.916 25.7087 45.857 24.9592 50 24.9592ZM35 26.4073C36.775 28.3407 39 31.3099 39 32.9651C39 34.9876 37.946 37.0772 37.437 37.9688H32.563C32.053 37.0802 31 34.9976 31 32.9651C31 31.3139 33.226 28.3417 35 26.4073ZM29.008 33.1863C29.079 35.6961 30.318 38.0969 30.888 39.0706C29.011 43.6831 28.325 48.7128 28.923 53.6625L31.471 74.6951C30.169 74.3808 29.026 73.7904 28 72.9318V34.2601C28.323 33.8928 28.66 33.5355 29.008 33.1863ZM24 23.1939L25.382 25.9599H22.618L24 23.1939Z" fill="#FBF9D9"/>
</svg>
