<svg width="100" height="100" viewBox="0 0 100 100" fill="none" xmlns="http://www.w3.org/2000/svg">
<rect width="100" height="100" rx="25" fill="#C47F65"/>
<path d="M21 80H79C79.553 80 80 79.552 80 79V21C80 20.448 79.553 20 79 20H21C20.447 20 20 20.448 20 21V79C20 79.552 20.447 80 21 80ZM22 22H78V78H22V22Z" fill="#FBF9D9"/>
<path d="M26 45H49C49.412 45 49.782 44.747 49.932 44.362L56.932 26.362C57.052 26.054 57.012 25.708 56.826 25.435C56.64 25.162 56.33 25 56 25H26C25.447 25 25 25.448 25 26V44C25 44.552 25.447 45 26 45ZM27 27H54.538L48.316 43H27V27Z" fill="#FBF9D9"/>
<path d="M74 25H60C59.588 25 59.218 25.253 59.068 25.638L52.068 43.638C51.948 43.946 51.988 44.292 52.174 44.565C52.36 44.838 52.67 45 53 45H74C74.553 45 75 44.552 75 44V26C75 25.448 74.553 25 74 25ZM73 43H54.462L60.684 27H73V43Z" fill="#FBF9D9"/>
<path d="M26 63H42C42.553 63 43 62.552 43 62V48C43 47.448 42.553 47 42 47H26C25.447 47 25 47.448 25 48V62C25 62.552 25.447 63 26 63ZM27 49H41V61H27V49Z" fill="#FBF9D9"/>
<path d="M74 47H46C45.447 47 45 47.448 45 48V62C45 62.552 45.447 63 46 63H74C74.553 63 75 62.552 75 62V48C75 47.448 74.553 47 74 47ZM73 61H47V49H73V61Z" fill="#FBF9D9"/>
<path d="M74 65H26C25.447 65 25 65.448 25 66V74C25 74.552 25.447 75 26 75H74C74.553 75 75 74.552 75 74V66C75 65.448 74.553 65 74 65ZM73 73H27V67H73V73Z" fill="#FBF9D9"/>
</svg>
