<svg width="100" height="100" viewBox="0 0 100 100" fill="none" xmlns="http://www.w3.org/2000/svg">
<rect width="100" height="100" rx="25" fill="#C47F65"/>
<path d="M79.483 35.8745C79.802 35.6995 80 35.3635 80 34.9995C80 34.6355 79.802 34.2995 79.483 34.1245L50.483 18.1245C50.182 17.9585 49.818 17.9585 49.517 18.1245L20.517 34.1245C20.198 34.2995 20 34.6355 20 34.9995C20 35.3635 20.198 35.6995 20.517 35.8745L28 40.0035V61.9995H21C20.448 61.9995 20 62.4475 20 62.9995V76.9995C20 77.5515 20.448 77.9995 21 77.9995H64H69H79C79.552 77.9995 80 77.5515 80 76.9995V62.9995C80 62.4475 79.552 61.9995 79 61.9995H72V40.0035L76 37.7965V47.1835C74.839 47.5975 74 48.6975 74 49.9995V57.9995C74 58.5515 74.448 58.9995 75 58.9995H79C79.552 58.9995 80 58.5515 80 57.9995V49.9995C80 48.6975 79.161 47.5975 78 47.1835V36.6935L79.483 35.8745ZM78 56.9995H76V49.9995C76 49.4485 76.449 48.9995 77 48.9995C77.551 48.9995 78 49.4485 78 49.9995V56.9995ZM50 20.1415L76.93 34.9995L50 49.8575L23.07 34.9995L50 20.1415ZM22 63.9995H63V65.9995H54C53.596 65.9995 53.231 66.2435 53.076 66.6165C52.921 66.9905 53.007 67.4205 53.293 67.7065L55.586 69.9995L53.293 72.2925C53.007 72.5785 52.921 73.0085 53.076 73.3825C53.231 73.7555 53.596 73.9995 54 73.9995H63V75.9995H22V63.9995ZM57.707 69.2925L56.414 67.9995H63V71.9995H56.414L57.707 70.7065C58.098 70.3155 58.098 69.6835 57.707 69.2925ZM65 75.9995V63.9995H68V75.9995H65ZM78 75.9995H70V63.9995H78V75.9995ZM70 61.9995H69H64H30V58.9995H36V56.9995H30V41.1065L49.517 51.8745C49.667 51.9575 49.833 51.9995 50 51.9995C50.167 51.9995 50.333 51.9575 50.483 51.8745L70 41.1065V61.9995Z" fill="#FBF9D9"/>
<path d="M38 56.9995H40V58.9995H38V56.9995Z" fill="#FBF9D9"/>
<path d="M42 56.9995H44V58.9995H42V56.9995Z" fill="#FBF9D9"/>
<path d="M46 56.9995H48V58.9995H46V56.9995Z" fill="#FBF9D9"/>
<path d="M54 34.9995C54 33.3175 52.243 31.9995 50 31.9995C47.757 31.9995 46 33.3175 46 34.9995C46 36.6815 47.757 37.9995 50 37.9995C52.243 37.9995 54 36.6815 54 34.9995ZM48 34.9995C48 34.5915 48.779 33.9995 50 33.9995C51.221 33.9995 52 34.5915 52 34.9995C52 35.4075 51.221 35.9995 50 35.9995C48.779 35.9995 48 35.4075 48 34.9995Z" fill="#FBF9D9"/>
</svg>
