<svg width="100" height="100" viewBox="0 0 100 100" fill="none" xmlns="http://www.w3.org/2000/svg">
<rect width="100" height="100" rx="25" fill="#C47F65"/>
<path d="M20 63.0007C23.3089 63.0007 25.9999 60.3098 25.9999 57.0009V51.0012C25.9999 48.5643 27.7549 46.5354 30.0649 46.0954C30.0269 46.3934 29.9999 46.6934 29.9999 47.0014V58.0009C29.9999 59.6548 28.6539 61.0008 26.9999 61.0008C26.4469 61.0008 25.9999 61.4488 25.9999 62.0007V75.0002C25.9999 75.0822 26.0099 75.1632 26.0299 75.2432L27.0299 79.243C27.1419 79.688 27.5409 80 27.9999 80H32.9998C33.5528 80 33.9998 79.552 33.9998 79V77.0001C33.9998 76.8451 33.9638 76.6911 33.8948 76.5531L32.9998 74.7642V66.9555C34.0508 66.8605 35.0548 66.6096 35.9998 66.2386V75.0002C35.9998 75.0822 36.0098 75.1632 36.0298 75.2432L37.0298 79.243C37.1418 79.688 37.5408 80 37.9998 80H42.9997C43.5527 80 43.9997 79.552 43.9997 79V77.0001C43.9997 76.8451 43.9637 76.6911 43.8947 76.5531L42.9997 74.7642V61.0008H56.9995V75.0002C56.9995 75.0822 57.0095 75.1632 57.0295 75.2432L58.0295 79.243C58.1415 79.688 58.5405 80 58.9995 80H63.9994C64.5524 80 64.9994 79.552 64.9994 79V77.0001C64.9994 76.8451 64.9634 76.6911 64.8944 76.5531L63.9994 74.7642V60.2668L64.2494 59.8288L68.8084 65.1476L67.1774 68.4085L66.2924 69.2934C66.1044 69.4804 65.9994 69.7354 65.9994 70.0004V75.0002C65.9994 75.5522 66.4464 76.0002 66.9994 76.0002H68.9994C69.1544 76.0002 69.3084 75.9642 69.4464 75.8952L71.4463 74.8952C71.6163 74.8102 71.7583 74.6782 71.8563 74.5152L75.5623 68.3385C77.1633 65.6706 76.8323 62.3307 74.7403 60.0288L67.9994 52.6141V39.2827L74.7573 40.9716C75.1833 41.0776 75.6303 40.8916 75.8573 40.5156L78.8572 35.5158C79.0932 35.1219 79.0312 34.6189 78.7072 34.2939L74.2403 29.8271L78.8742 21.4864C79.0912 21.0954 79.0222 20.6094 78.7072 20.2935C78.3913 19.9775 77.9043 19.9085 77.5153 20.1265L68.7404 25.0023H67.3504C66.4094 24.2103 65.2444 23.7583 63.9994 23.7583C62.5994 23.7583 61.2835 24.3033 60.2945 25.2933L45.5857 40.0016H36.9998H29.9999C23.9349 40.0016 19 44.9364 19 51.0012V62.0007C19 62.5527 19.447 63.0007 20 63.0007ZM21 51.0012C21 50.9052 21.011 50.8122 21.014 50.7172L24.1289 49.6793C24.0469 50.1072 23.9999 50.5492 23.9999 51.0012V51.6392L21 55.239V51.0012ZM21 60.8748V58.3639L23.9999 54.764V57.0009C23.9999 58.8609 22.724 60.4288 21 60.8748ZM41.9997 78.0001H38.7808L37.9998 74.8772V65.1926C39.1777 64.4206 40.1927 63.4337 40.9997 62.2817V75.0002C40.9997 75.1552 41.0357 75.3092 41.1047 75.4472L41.9997 77.2361V78.0001ZM73.8483 67.3095L70.2914 73.2363L68.7634 74.0002H67.9994V70.4144L68.7064 69.7074C68.7824 69.6314 68.8464 69.5434 68.8944 69.4474L70.8943 65.4476C71.0743 65.0876 71.0213 64.6556 70.7583 64.3496L65.3034 57.9849L67.1854 54.691L73.2603 61.3738C74.7553 63.0187 74.9903 65.4036 73.8483 67.3095ZM70.6433 26.2322L71.0013 26.0332L73.6863 26.7042L72.7683 28.3571L70.6433 26.2322ZM74.6923 24.8953L73.5603 24.6123L75.4253 23.5763L74.6923 24.8953ZM65.4544 26.1332L63.5854 28.0021H60.4135L61.7085 26.7072C62.6874 25.7282 64.2424 25.5462 65.4544 26.1332ZM55.5855 36.0018H52.4136L54.4136 34.0019H57.5855L55.5855 36.0018ZM59.5855 32.002H56.4135L58.4135 30.0021H61.5855L59.5855 32.002ZM50.4136 38.0017H53.5856L51.5856 40.0016H48.4136L50.4136 38.0017ZM51.9996 42.0016C52.2656 42.0016 52.5196 41.8966 52.7066 41.7086L67.4134 27.0022H68.5854L76.7403 35.1568L74.5223 38.8517L67.2414 37.0318C66.9454 36.9578 66.6274 37.0248 66.3844 37.2138C66.1414 37.4028 65.9994 37.6937 65.9994 38.0017V52.7351L62.1315 59.5048C62.0455 59.6558 61.9995 59.8268 61.9995 60.0008V75.0002C61.9995 75.1552 62.0355 75.3092 62.1045 75.4472L62.9994 77.2361V78.0001H59.7805L58.9995 74.8772V60.0008C58.9995 59.4488 58.5525 59.0009 57.9995 59.0009H42.5837C42.8547 58.0469 42.9997 57.0409 42.9997 56.001V55.001H40.9997V56.001C40.9997 59.4838 39.0067 62.5057 36.1038 64.0007H35.9998V64.0507C34.7928 64.6536 33.4378 65.0006 31.9998 65.0006C31.4468 65.0006 30.9998 65.4486 30.9998 66.0006V75.0002C30.9998 75.1552 31.0358 75.3092 31.1048 75.4472L31.9998 77.2361V78.0001H28.7809L27.9999 74.8772V62.8997C30.2789 62.4357 31.9998 60.4148 31.9998 58.0009V47.0014C31.9998 44.2445 34.2428 42.0016 36.9998 42.0016H51.9996ZM32.1108 42.0016C31.5198 42.5795 31.0358 43.2625 30.6779 44.0175C30.4949 44.0255 30.3139 44.0385 30.1349 44.0605L30.1419 44.0115L25.3279 43.3235C26.6919 42.4905 28.2879 42.0016 29.9999 42.0016H32.1108ZM23.2669 45.0494L26.6439 45.5314C26.0399 46.0134 25.5199 46.5934 25.1029 47.2464L21.363 48.4923C21.739 47.2014 22.398 46.0314 23.2669 45.0494Z" fill="#FBF9D9"/>
</svg>
