<svg width="100" height="100" viewBox="0 0 100 100" fill="none" xmlns="http://www.w3.org/2000/svg">
<rect width="100" height="100" rx="25" fill="#C47F65"/>
<path d="M55 28.1355C55 25.8922 53.206 24.0677 51 24.0677H50C47.794 24.0677 46 25.8922 46 28.1355H48C48 27.0139 48.897 26.1016 50 26.1016H51C51.974 26.1016 52.787 26.8125 52.964 27.7511L50.293 30.4674C50.105 30.6576 50 30.9159 50 31.1864V33.2203H52V31.6074L54.707 28.8545C54.895 28.6644 55 28.4061 55 28.1355Z" fill="#FBF9D9"/>
<path d="M50 35.2543H52V37.2882H50V35.2543Z" fill="#FBF9D9"/>
<path d="M80.62 45.6525L80.625 45.6464L75.625 41.5786C75.447 41.4342 75.228 41.3559 75 41.3559H66V21.0169C66 20.4546 65.553 20 65 20H37C36.447 20 36 20.4546 36 21.0169V41.3559H27C26.772 41.3559 26.553 41.4342 26.375 41.5786L21.375 45.6464L21.38 45.6525C21.146 45.8437 21 46.1285 21 46.4407V53.5593C21 53.6854 21.023 53.8105 21.068 53.9275L27.756 71.417L21.504 75.0495C21.192 75.2305 21 75.5681 21 75.9322V78.9831C21 79.5454 21.447 80 22 80H45C45.553 80 46 79.5454 46 78.9831V73.6776L47.412 74.721C47.583 74.8481 47.789 74.9153 48 74.9153H54C54.211 74.9153 54.417 74.8481 54.588 74.721L56 73.6776V78.9831C56 79.5454 56.447 80 57 80H80C80.553 80 81 79.5454 81 78.9831V75.9322C81 75.5681 80.808 75.2305 80.496 75.0495L74.244 71.417L80.932 53.9285C80.977 53.8105 81 53.6854 81 53.5593V46.4407C81 46.1285 80.854 45.8437 80.62 45.6525ZM78.329 46.3837L66 55.1051V48.4746H71C71.553 48.4746 72 48.02 72 47.4576V46.4407C72 45.2915 71.609 44.242 70.974 43.3898H74.649L78.329 46.3837ZM38 39.322H48V37.2881H38V22.0339H64V37.2881H54V39.322H64V41.3559H38V39.322ZM67 43.3898C68.654 43.3898 70 44.7586 70 46.4407H32C32 44.7586 33.346 43.3898 35 43.3898H67ZM54 48.4746H60V52.5424H54V48.4746ZM42 48.4746H48V52.5424H42V48.4746ZM27.351 43.3898H31.026C30.391 44.242 30 45.2915 30 46.4407V47.4576C30 48.02 30.447 48.4746 31 48.4746H36V55.1051L23.671 46.3837L27.351 43.3898ZM44 77.9661H23V76.522L29.496 72.7471C29.926 72.497 30.111 71.9641 29.932 71.4963L23 53.3681V48.3871L44 63.2427V77.9661ZM53.675 72.8814H48.325L46 71.1637V62.7119C46 62.3793 45.84 62.0671 45.571 61.8769L38 56.5207V48.4746H40V53.5593C40 54.1217 40.447 54.5763 41 54.5763H49C49.553 54.5763 50 54.1217 50 53.5593V48.4746H52V53.5593C52 54.1217 52.447 54.5763 53 54.5763H61C61.553 54.5763 62 54.1217 62 53.5593V48.4746H64V56.5207L56.429 61.8769C56.16 62.0671 56 62.3793 56 62.7119V71.1637L53.675 72.8814ZM79 53.3681L72.068 71.4953C71.888 71.9641 72.074 72.4959 72.504 72.7461L79 76.522V77.9661H58V63.2427L79 48.3871V53.3681Z" fill="#FBF9D9"/>
</svg>
