<svg width="100" height="100" viewBox="0 0 100 100" fill="none" xmlns="http://www.w3.org/2000/svg">
<rect width="100" height="100" rx="25" fill="#C47F65"/>
<path d="M72.196 23.795C67.126 18.7353 58.874 18.7343 53.801 23.797L50.332 27.2764C50.208 27.4014 50.109 27.5444 50 27.6815C49.892 27.5454 49.793 27.4024 49.668 27.2774L46.196 23.795C41.126 18.7343 32.874 18.7353 27.802 23.796L20.292 31.3169C20.105 31.5049 20 31.759 20 32.024V78.9999C20 79.5519 20.448 80 21 80H34C34.552 80 35 79.5519 35 78.9999V64.4421L42.053 71.4959C43.027 72.4701 44.378 73.0291 45.76 73.0291C47.163 73.0291 48.479 72.4851 49.471 71.4919C49.67 71.2899 49.838 71.0679 50 70.8419C50.163 71.0689 50.332 71.2929 50.533 71.4959C51.521 72.4841 52.838 73.0291 54.241 73.0291C55.623 73.0291 56.974 72.4701 57.948 71.4959L65 64.4421V78.9999C65 79.5519 65.448 80 66 80H79C79.552 80 80 79.5519 80 78.9999V32.024C80 31.759 79.895 31.5049 79.708 31.3169L72.196 23.795ZM48.052 70.0818C46.841 71.2939 44.68 71.2939 43.467 70.0818L34.707 61.3207C34.42 61.0336 33.99 60.9486 33.617 61.1036C33.244 61.2587 33 61.6227 33 62.0278V77.9998H22V32.4371L29.216 25.2102C33.508 20.9266 40.492 20.9266 44.782 25.2082L48.253 28.6896C48.735 29.1726 49 29.8097 49 30.4838C49 31.0629 48.798 31.606 48.444 32.054L43.367 26.9764C39.856 23.4649 34.143 23.4649 30.633 26.9764L32.047 28.3905C34.777 25.6602 39.222 25.6592 41.953 28.3905L48.253 34.6913C48.735 35.1734 49 35.8105 49 36.4846C49 37.0636 48.798 37.6067 48.444 38.0548L40.537 30.1458C38.587 28.1955 35.413 28.1955 33.463 30.1458L31.293 32.316L32.707 33.7302L34.877 31.5599C36.047 30.3888 37.952 30.3898 39.123 31.5599L48.253 40.6911C48.735 41.1741 49 41.8112 49 42.4853C49 43.1664 48.735 43.8065 48.253 44.2885C47.307 45.2337 45.634 45.2457 44.667 44.2785L37.707 37.3177C37.52 37.1296 37.265 37.0246 37 37.0246C36.735 37.0246 36.48 37.1296 36.293 37.3177L33.293 40.318C33.105 40.5051 33 40.7601 33 41.0251V50.0263C33 50.2913 33.105 50.5463 33.293 50.7333L48.053 65.4952C48.655 66.0973 49 66.9334 49 67.7885C49 68.6486 48.662 69.4647 48.052 70.0818ZM50.159 33.4892C50.103 33.5522 50.052 33.6172 50 33.6822C49.948 33.6172 49.897 33.5522 49.841 33.4892C49.897 33.4262 49.948 33.3612 50 33.2962C50.052 33.3612 50.103 33.4262 50.159 33.4892ZM50.159 39.4899C50.103 39.5529 50.052 39.618 50 39.683C49.948 39.618 49.897 39.5529 49.841 39.4899C49.897 39.4269 49.948 39.3619 50 39.2969C50.052 39.3619 50.103 39.4269 50.159 39.4899ZM50.333 45.7027C51.186 46.5558 52.325 47.0259 53.54 47.0259C54.749 47.0259 55.888 46.5528 56.747 45.6927L63 39.4389L65 41.4392V49.6122L50.533 64.081C50.333 64.281 50.163 64.5051 50 64.7331C49.836 64.5051 49.666 64.28 49.467 64.081L35 49.6122V41.4392L37 39.4389L43.253 45.6927C44.112 46.5518 45.251 47.0259 46.46 47.0259C47.675 47.0259 48.814 46.5558 49.667 45.7027C49.792 45.5777 49.891 45.4347 50 45.2977C50.109 45.4347 50.208 45.5777 50.333 45.7027ZM78 77.9998H67V62.0278C67 61.6237 66.756 61.2587 66.383 61.1036C66.008 60.9486 65.579 61.0336 65.293 61.3207L56.533 70.0818C55.32 71.2939 53.154 71.2899 51.951 70.0858C51.338 69.4647 51 68.6486 51 67.7885C51 66.9334 51.345 66.0973 51.947 65.4952L66.707 50.7333C66.895 50.5453 67 50.2913 67 50.0263V41.0251C67 40.7601 66.895 40.5051 66.707 40.318L63.707 37.3177C63.332 36.9426 62.668 36.9426 62.293 37.3177L55.333 44.2785C54.365 45.2457 52.692 45.2337 51.747 44.2885C51.265 43.8065 51 43.1664 51 42.4853C51 41.8112 51.265 41.1741 51.747 40.6921L60.877 31.5609C62.048 30.3898 63.952 30.3898 65.123 31.5609L67.293 33.7312L68.707 32.317L66.537 30.1468C64.587 28.1965 61.413 28.1965 59.463 30.1468L51.556 38.0558C51.202 37.6067 51 37.0636 51 36.4846C51 35.8105 51.265 35.1734 51.747 34.6913L58.047 28.3905C60.778 25.6602 65.222 25.6602 67.953 28.3905L69.367 26.9764C65.857 23.4659 60.144 23.4649 56.633 26.9764L51.556 32.054C51.202 31.606 51 31.0629 51 30.4838C51 29.8097 51.265 29.1726 51.748 28.6896L55.216 25.2102C59.508 20.9276 66.492 20.9266 70.783 25.2092L78 32.4371V77.9998Z" fill="#FBF9D9"/>
</svg>
