<svg width="100" height="100" viewBox="0 0 100 100" fill="none" xmlns="http://www.w3.org/2000/svg">
<rect width="100" height="100" rx="25" fill="#C47F65"/>
<path d="M43.5963 54.9763C43.2372 55.5765 43.0171 56.2708 43.0171 57.02C43.0171 59.2268 44.8118 61.0214 47.0187 61.0214C48.2202 61.0214 49.2856 60.4792 50.0199 59.6389C50.7542 60.4792 51.8196 61.0214 53.0211 61.0214C55.228 61.0214 57.0227 59.2268 57.0227 57.02C57.0227 56.2708 56.8027 55.5765 56.4435 54.9763C58.4503 54.7633 60.024 53.0807 60.024 51.018C60.024 48.9553 58.4503 47.2728 56.4435 47.0597C56.8027 46.4595 57.0227 45.7653 57.0227 45.016C57.0227 42.8093 55.228 41.0147 53.0211 41.0147C51.8196 41.0147 50.7542 41.5569 50.0199 42.3972C49.2856 41.5569 48.2202 41.0147 47.0187 41.0147C44.8118 41.0147 43.0171 42.8093 43.0171 45.016C43.0171 45.7653 43.2372 46.4595 43.5963 47.0597C41.5895 47.2728 40.0159 48.9553 40.0159 51.018C40.0159 53.0807 41.5895 54.7633 43.5963 54.9763ZM50.0199 49.0174C51.1234 49.0174 52.0207 49.9147 52.0207 51.018C52.0207 52.1214 51.1234 53.0187 50.0199 53.0187C48.9165 53.0187 48.0191 52.1214 48.0191 51.018C48.0191 49.9147 48.9165 49.0174 50.0199 49.0174ZM47.0187 59.0207C45.9153 59.0207 45.0179 58.1234 45.0179 57.02C45.0179 55.9167 45.9153 55.0194 47.0187 55.0194C48.1221 55.0194 49.0195 55.9167 49.0195 57.02C49.0195 58.1234 48.1221 59.0207 47.0187 59.0207ZM53.0211 59.0207C51.9177 59.0207 51.0203 58.1234 51.0203 57.02C51.0203 55.9167 51.9177 55.0194 53.0211 55.0194C54.1246 55.0194 55.0219 55.9167 55.0219 57.02C55.0219 58.1234 54.1246 59.0207 53.0211 59.0207ZM58.0232 51.018C58.0232 52.1214 57.1258 53.0187 56.0223 53.0187C54.9189 53.0187 54.0215 52.1214 54.0215 51.018C54.0215 49.9147 54.9189 49.0174 56.0223 49.0174C57.1258 49.0174 58.0232 49.9147 58.0232 51.018ZM53.0211 43.0154C54.1246 43.0154 55.0219 43.9127 55.0219 45.016C55.0219 46.1194 54.1246 47.0167 53.0211 47.0167C51.9177 47.0167 51.0203 46.1194 51.0203 45.016C51.0203 43.9127 51.9177 43.0154 53.0211 43.0154ZM47.0187 43.0154C48.1221 43.0154 49.0195 43.9127 49.0195 45.016C49.0195 46.1194 48.1221 47.0167 47.0187 47.0167C45.9153 47.0167 45.0179 46.1194 45.0179 45.016C45.0179 43.9127 45.9153 43.0154 47.0187 43.0154ZM44.0175 49.0174C45.1209 49.0174 46.0183 49.9147 46.0183 51.018C46.0183 52.1214 45.1209 53.0187 44.0175 53.0187C42.914 53.0187 42.0167 52.1214 42.0167 51.018C42.0167 49.9147 42.914 49.0174 44.0175 49.0174Z" fill="#FBF9D9"/>
<path d="M21.0081 44.0157C21.0081 46.2225 22.8028 48.0171 25.0097 48.0171C25.4319 48.0171 25.8311 47.933 26.2132 47.812C26.8675 48.8813 27.5668 49.9527 28.3111 51.019C20.0157 62.983 17.7238 73.7366 22.5117 78.5242C24.1764 80.1897 26.5634 81 29.4715 81C34.9257 81 42.2167 78.141 50.0199 72.7303C57.824 78.142 65.115 81 70.5682 81C73.4763 81 75.8633 80.1897 77.528 78.5242C82.3159 73.7366 80.024 62.981 71.7286 51.018C80.025 39.0541 82.3159 28.2995 77.528 23.5119C74.1556 20.1398 68.0051 20.1698 60.164 23.5599C59.4307 22.6226 58.3022 22.0084 57.0227 22.0084C54.8158 22.0084 53.0211 23.803 53.0211 26.0097C53.0211 26.4319 53.1051 26.831 53.2262 27.2131C52.1537 27.8694 51.0823 28.5686 50.0189 29.3108C38.054 21.0161 27.2977 18.7253 22.5117 23.5119C19.1394 26.885 19.1704 33.0341 22.5597 40.8757C21.6224 41.6079 21.0081 42.7363 21.0081 44.0157ZM23.0089 44.0157C23.0089 42.9124 23.9063 42.0151 25.0097 42.0151C26.1132 42.0151 27.0105 42.9124 27.0105 44.0157C27.0105 45.1191 26.1132 46.0164 25.0097 46.0164C23.9063 46.0164 23.0089 45.1191 23.0089 44.0157ZM23.9263 77.1097C19.9897 73.1734 22.2716 63.4762 29.5556 52.7446C32.0886 56.1978 34.9838 59.5839 38.2181 62.818C41.4514 66.052 44.8388 68.947 48.2932 71.4798C37.5618 78.7633 27.8639 81.046 23.9263 77.1097ZM50.0199 31.7657C53.5813 34.3295 57.0747 37.3005 60.4061 40.6326C63.7394 43.9647 66.7096 47.4579 69.2726 51.019C66.7096 54.5792 63.7394 58.0724 60.4061 61.4055C57.0747 64.7376 53.5813 67.7076 50.0189 70.2724C46.4574 67.7086 42.964 64.7376 39.6317 61.4055C36.2993 58.0734 33.3301 54.5812 30.7651 51.019C33.3281 47.4589 36.2983 43.9657 39.6317 40.6326C42.963 37.3005 46.4554 34.3315 50.0199 31.7657ZM76.1134 77.1097C72.1778 81.047 62.4799 78.7643 51.7455 71.4808C55.2009 68.947 58.5883 66.052 61.8206 62.819C65.0559 59.5839 67.9511 56.1978 70.4831 52.7446C77.7681 63.4752 80.05 73.1734 76.1134 77.1097ZM76.1134 24.9264C80.05 28.8627 77.7681 38.5599 70.4841 49.2915C67.9511 45.8383 65.0559 42.4522 61.8216 39.2181C58.5883 35.9841 55.2009 33.0881 51.7455 30.5553C52.5909 29.9801 53.4372 29.4309 54.2836 28.9127C55.0009 29.5889 55.9613 30.0111 57.0227 30.0111C59.2296 30.0111 61.0243 28.2165 61.0243 26.0097C61.0243 25.7987 60.9933 25.5956 60.9623 25.3935C67.9021 22.3965 73.3983 22.2125 76.1134 24.9264ZM57.0227 24.0091C58.1261 24.0091 59.0235 24.9064 59.0235 26.0097C59.0235 27.1131 58.1261 28.0104 57.0227 28.0104C55.9192 28.0104 55.0219 27.1131 55.0219 26.0097C55.0219 24.9064 55.9192 24.0091 57.0227 24.0091ZM23.9263 24.9264C27.8639 20.9901 37.5618 23.2728 48.2942 30.5553C44.8388 33.0891 41.4514 35.9841 38.2191 39.2171C34.9838 42.4522 32.0876 45.8393 29.5556 49.2925C28.9783 48.4452 28.4291 47.5999 27.9129 46.7546C28.5882 46.0384 29.0114 45.0771 29.0114 44.0157C29.0114 41.809 27.2166 40.0144 25.0097 40.0144C24.7987 40.0144 24.5956 40.0454 24.3925 40.0764C21.3963 33.1371 21.2132 27.6393 23.9263 24.9264Z" fill="#FBF9D9"/>
</svg>
