<svg width="100" height="100" viewBox="0 0 100 100" fill="none" xmlns="http://www.w3.org/2000/svg">
<rect width="100" height="100" rx="25" fill="#C47F65"/>
<path d="M80 64.0002H74.0001V62.0002H76.0001C76.5531 62.0002 77 61.5522 77 61.0002V55.0003C77 54.4483 76.5531 54.0003 76.0001 54.0003H71.9131L70.0151 33.1325L73.9391 22.3426C74.0541 22.0256 74.0021 21.6716 73.8001 21.4016C73.5981 21.1316 73.2651 20.9776 72.9371 21.0026L57.0243 21.9976L48.1104 21.0076C47.9904 20.9926 47.8724 21.0006 47.7584 21.0306L43.9004 21.9956L22.0457 21.0016C21.7557 20.9866 21.4657 21.1056 21.2667 21.3216C21.0667 21.5376 20.9717 21.8316 21.0087 22.1246L22.9947 38.0154L21.0057 58.9052C20.9947 59.0182 21.0027 59.1322 21.0307 59.2422L22.9817 67.0461L21.0117 79.847C20.9627 80.164 21.0697 80.485 21.2967 80.71C21.4867 80.898 21.7397 81 22.0007 81C22.0557 81 22.1097 80.996 22.1647 80.986L33.6575 79.07L35.2935 80.706C35.5065 80.919 35.7965 81.02 36.1055 80.994L53.0003 79.22V80C53.0003 80.552 53.4473 81 54.0003 81H80C80.553 81 81 80.552 81 80V65.0001C81 64.4481 80.553 64.0002 80 64.0002ZM72.0001 64.0002H62.0002V62.0002H72.0001V64.0002ZM75.0001 60.0002H59.0003V56.0002H75.0001V60.0002ZM36.3705 78.956L34.7075 77.293C34.4785 77.064 34.1525 76.957 33.8365 77.014L23.1987 78.787L24.9886 67.1521C25.0096 67.0211 25.0026 66.8861 24.9696 66.7571L23.3747 60.3742L25.7586 60.9702L26.2426 59.0302L23.0777 58.2392L24.9336 38.7444L27.0006 38.0544L29.6846 38.9494L30.3176 37.0525L27.3176 36.0525C27.1126 35.9845 26.8896 35.9845 26.6846 36.0525L24.8416 36.6665L23.1407 23.0536L43.9554 23.9996C44.0464 24.0016 44.1484 23.9936 44.2424 23.9706L47.4644 23.1656L48.9204 26.0776L48.0524 28.6846L49.9484 29.3175L50.9483 26.3176C51.0323 26.0656 51.0123 25.7916 50.8943 25.5536L49.7164 23.1976L56.8893 23.9946C56.9463 24.0026 57.0053 24.0036 57.0623 23.9986L71.5381 23.0936L68.0602 32.6585C68.0092 32.7965 67.9911 32.9445 68.0031 33.0905L69.9051 54.0003H58.0003C57.4473 54.0003 57.0003 54.4483 57.0003 55.0003V61.0002C57.0003 61.5522 57.4473 62.0002 58.0003 62.0002H60.0002V64.0002H54.0003C53.4473 64.0002 53.0003 64.4481 53.0003 65.0001V77.209L36.3705 78.956ZM79 79H55.0003V66.0001H79V79Z" fill="#FBF9D9"/>
<path d="M46.0004 62.0002C46.2664 62.0002 46.5204 61.8952 46.7074 61.7072L56.6783 51.7363C61.4002 47.0144 64.0002 40.7364 64.0002 34.0595V28.0006C64.0002 27.5966 63.7572 27.2316 63.3832 27.0766C63.0092 26.9216 62.5792 27.0066 62.2932 27.2936L37.2935 52.2933C37.1055 52.4803 37.0005 52.7353 37.0005 53.0003V60.5862L30.2936 67.2931L31.7076 68.7071L38.4145 62.0002H46.0004ZM39.0005 53.4143L62.0002 30.4146V34.0595C62.0002 40.2034 59.6072 45.9784 55.2643 50.3223L45.5864 60.0002H40.4145L58.7073 41.7074L57.2933 40.2934L39.0005 58.5862V53.4143Z" fill="#FBF9D9"/>
<path d="M47.4454 68.1681L45.0004 69.798L42.5554 68.1681C42.2194 67.9441 41.7824 67.9441 41.4464 68.1681L39.0005 69.798L36.5555 68.1681C36.2195 67.9441 35.7825 67.9441 35.4465 68.1681L32.4465 70.168L33.5555 71.832L36.0005 70.202L38.4455 71.832C38.7815 72.056 39.2185 72.056 39.5545 71.832L42.0004 70.202L44.4454 71.832C44.6134 71.944 44.8074 72 45.0004 72C45.1934 72 45.3874 71.944 45.5554 71.832L48.0004 70.202L50.4453 71.832L51.5543 70.168L48.5543 68.1681C48.2194 67.9441 47.7814 67.9441 47.4454 68.1681Z" fill="#FBF9D9"/>
</svg>
